<?xml version="1.0" encoding="UTF-8" standalone="no"?>
<!-- Created with Inkscape (http://www.inkscape.org/) -->

<svg
   width="511.78671"
   height="236.92207"
   viewBox="-28 0 200 60"
   version="1.1"
   id="svg5"
   xmlns:xlink="http://www.w3.org/1999/xlink"
   xmlns="http://www.w3.org/2000/svg"
   xmlns:svg="http://www.w3.org/2000/svg"
   xmlns:rdf="http://www.w3.org/1999/02/22-rdf-syntax-ns#"
   xmlns:cc="http://creativecommons.org/ns#"
   xmlns:dc="http://purl.org/dc/elements/1.1/">
  <title
     id="title134">ROTten Text app icon</title>
  <defs
     id="defs2">
    <linearGradient
       xlink:href="#linearGradient9524"
       id="linearGradient9526"
       x1="128.83377"
       y1="192.74049"
       x2="83.861275"
       y2="117.04166"
       gradientUnits="userSpaceOnUse"
       gradientTransform="matrix(1.0001481,0,0,0.82809241,-35.552884,-61.032784)" />
    <linearGradient
       id="linearGradient9524">
      <stop
         style="stop-color:#0f68a9;stop-opacity:0.90196079;"
         offset="0"
         id="stop9520" />
      <stop
         style="stop-color:#7ef29d;stop-opacity:1;"
         offset="1"
         id="stop9522" />
    </linearGradient>
    <linearGradient
       xlink:href="#linearGradient7214"
       id="linearGradient7216"
       x1="88.024605"
       y1="134.90134"
       x2="128.83377"
       y2="143.79535"
       gradientUnits="userSpaceOnUse"
       gradientTransform="matrix(1,0,0,0.82809241,-35.540462,-61.032784)" />
    <linearGradient
       id="linearGradient7214">
      <stop
         style="stop-color:#138086;stop-opacity:1;"
         offset="0"
         id="stop7210" />
      <stop
         style="stop-color:#534666;stop-opacity:0;"
         offset="1"
         id="stop7212" />
    </linearGradient>
    <linearGradient
       xlink:href="#linearGradient9524"
       id="linearGradient32167"
       x1="307.25781"
       y1="481.69016"
       x2="393.86914"
       y2="706.50983"
       gradientUnits="userSpaceOnUse" />
    <linearGradient
       xlink:href="#linearGradient32173"
       id="linearGradient32175"
       x1="301.78906"
       y1="481.69016"
       x2="459.04492"
       y2="652.24298"
       gradientUnits="userSpaceOnUse" />
    <linearGradient
       id="linearGradient32173">
      <stop
         style="stop-color:#7ef29d;stop-opacity:1;"
         offset="0"
         id="stop32169" />
      <stop
         style="stop-color:#0f68a9;stop-opacity:0.90196079;"
         offset="1"
         id="stop32171" />
    </linearGradient>
    <linearGradient
       xlink:href="#linearGradient76626"
       id="linearGradient76628"
       x1="57.531891"
       y1="129.31459"
       x2="67.030098"
       y2="151.63408"
       gradientUnits="userSpaceOnUse"
       gradientTransform="matrix(1.4674472,0,0,1.0535405,-65.009952,-96.657796)" />
    <linearGradient
       id="linearGradient76626">
      <stop
         style="stop-color:#1f2f43;stop-opacity:1;"
         offset="0"
         id="stop76622" />
      <stop
         style="stop-color:#000000;stop-opacity:0;"
         offset="1"
         id="stop76624" />
    </linearGradient>
    <linearGradient
       xlink:href="#linearGradient102838"
       id="linearGradient102840"
       x1="162.25311"
       y1="131.80588"
       x2="171.00787"
       y2="135.84077"
       gradientUnits="userSpaceOnUse"
       gradientTransform="matrix(0.97549918,0,0,0.98053267,-31.351852,-86.214662)" />
    <linearGradient
       id="linearGradient102838">
      <stop
         style="stop-color:#138086;stop-opacity:1;"
         offset="0"
         id="stop102834" />
      <stop
         style="stop-color:#548183;stop-opacity:0;"
         offset="1"
         id="stop102836" />
    </linearGradient>
    <filter
       style="color-interpolation-filters:sRGB"
       id="filter131690"
       x="-0.34071231"
       y="-0.62528992"
       width="1.6814246"
       height="2.0305724">
      <feFlood
         flood-opacity="0.498039"
         flood-color="rgb(128,128,128)"
         result="flood"
         id="feFlood131680" />
      <feComposite
         in="flood"
         in2="SourceGraphic"
         operator="in"
         result="composite1"
         id="feComposite131682" />
      <feGaussianBlur
         in="composite1"
         stdDeviation="0.2"
         result="blur"
         id="feGaussianBlur131684" />
      <feOffset
         dx="-6.38378e-16"
         dy="-0.2"
         result="offset"
         id="feOffset131686" />
      <feComposite
         in="SourceGraphic"
         in2="offset"
         operator="over"
         result="fbSourceGraphic"
         id="feComposite131688" />
      <feColorMatrix
         result="fbSourceGraphicAlpha"
         in="fbSourceGraphic"
         values="0 0 0 -1 0 0 0 0 -1 0 0 0 0 -1 0 0 0 0 1 0"
         id="feColorMatrix135015" />
      <feFlood
         id="feFlood135017"
         flood-opacity="0.498039"
         flood-color="rgb(0,0,0)"
         result="flood"
         in="fbSourceGraphic" />
      <feComposite
         in2="fbSourceGraphic"
         id="feComposite135019"
         in="flood"
         operator="in"
         result="composite1" />
      <feGaussianBlur
         id="feGaussianBlur135021"
         in="composite1"
         stdDeviation="0.7"
         result="blur" />
      <feOffset
         id="feOffset135023"
         dx="-6.38378e-16"
         dy="-1"
         result="offset" />
      <feComposite
         in2="offset"
         id="feComposite135025"
         in="fbSourceGraphic"
         operator="over"
         result="composite2" />
    </filter>
    <linearGradient
       xlink:href="#linearGradient138456"
       id="linearGradient138458"
       x1="150.91039"
       y1="130.14355"
       x2="150.91039"
       y2="128.76378"
       gradientUnits="userSpaceOnUse"
       gradientTransform="matrix(-0.99999377,-0.01407368,0.00351998,-3.9982112,265.82371,562.35597)" />
    <linearGradient
       id="linearGradient138456">
      <stop
         style="stop-color:#138086;stop-opacity:1;"
         offset="0"
         id="stop138452" />
      <stop
         style="stop-color:#f1eee0;stop-opacity:0;"
         offset="1"
         id="stop138454" />
    </linearGradient>
    <filter
       style="color-interpolation-filters:sRGB"
       id="filter148426"
       x="-0.066405348"
       y="-0.14634778"
       width="1.1277026"
       height="1.3292825">
      <feFlood
         flood-opacity="0.498039"
         flood-color="rgb(0,0,0)"
         result="flood"
         id="feFlood148416" />
      <feComposite
         in="flood"
         in2="SourceGraphic"
         operator="out"
         result="composite1"
         id="feComposite148418" />
      <feGaussianBlur
         in="composite1"
         stdDeviation="0.5"
         result="blur"
         id="feGaussianBlur148420" />
      <feOffset
         dx="-0.1"
         dy="0.3"
         result="offset"
         id="feOffset148422" />
      <feComposite
         in="offset"
         in2="SourceGraphic"
         operator="atop"
         result="composite2"
         id="feComposite148424" />
    </filter>
    <linearGradient
       xlink:href="#linearGradient148917"
       id="linearGradient148919"
       x1="417.82208"
       y1="626.32745"
       x2="369.97107"
       y2="667.52301"
       gradientUnits="userSpaceOnUse" />
    <linearGradient
       id="linearGradient148917">
      <stop
         style="stop-color:#138086;stop-opacity:1;"
         offset="0"
         id="stop148913" />
      <stop
         style="stop-color:#7ef29d;stop-opacity:1;"
         offset="1"
         id="stop148915" />
    </linearGradient>
    <filter
       style="color-interpolation-filters:sRGB"
       id="filter149330"
       x="-0.020306716"
       y="-0.071636483"
       width="1.0391092"
       height="1.1604657">
      <feFlood
         flood-opacity="0.498039"
         flood-color="rgb(0,0,0)"
         result="flood"
         id="feFlood149320" />
      <feComposite
         in="flood"
         in2="SourceGraphic"
         operator="in"
         result="composite1"
         id="feComposite149322" />
      <feGaussianBlur
         in="composite1"
         stdDeviation="0.5"
         result="blur"
         id="feGaussianBlur149324" />
      <feOffset
         dx="-0.1"
         dy="0.3"
         result="offset"
         id="feOffset149326" />
      <feComposite
         in="SourceGraphic"
         in2="offset"
         operator="over"
         result="composite2"
         id="feComposite149328" />
    </filter>
    <linearGradient
       xlink:href="#linearGradient9524"
       id="linearGradient1135"
       gradientUnits="userSpaceOnUse"
       x1="307.25781"
       y1="481.69016"
       x2="393.86914"
       y2="706.50983" />
    <linearGradient
       xlink:href="#linearGradient32173"
       id="linearGradient1137"
       gradientUnits="userSpaceOnUse"
       x1="301.78906"
       y1="481.69016"
       x2="459.04492"
       y2="652.24298" />
    <linearGradient
       xlink:href="#linearGradient148917"
       id="linearGradient1139"
       gradientUnits="userSpaceOnUse"
       x1="417.82208"
       y1="626.32745"
       x2="369.97107"
       y2="667.52301" />
    <linearGradient
       xlink:href="#linearGradient148917"
       id="linearGradient1141"
       gradientUnits="userSpaceOnUse"
       x1="417.82208"
       y1="626.32745"
       x2="369.97107"
       y2="667.52301" />
    <linearGradient
       xlink:href="#linearGradient148917"
       id="linearGradient1143"
       gradientUnits="userSpaceOnUse"
       x1="417.82208"
       y1="626.32745"
       x2="369.97107"
       y2="667.52301" />
    <linearGradient
       xlink:href="#linearGradient148917"
       id="linearGradient1145"
       gradientUnits="userSpaceOnUse"
       x1="417.82208"
       y1="626.32745"
       x2="369.97107"
       y2="667.52301" />
  </defs>
  <g
     id="layer1"
     transform="translate(-0.05643152,-35.888522)">
    <path
       id="path344"
       style="opacity:0.603376;fill:url(#linearGradient9526);fill-opacity:1;stroke-width:0.0367488"
       d="m 71.327748,35.893043 a 18.848617,18.623454 0 0 0 -6.909136,1.13572 18.848617,18.623454 0 0 0 -11.933856,13.64922 l -0.410371,8.4242 v 10.56299 a 22.492915,18.623454 0 0 0 -2.390906,16.68408 22.492915,18.623454 0 0 0 28.830929,11.097476 22.492915,18.623454 0 0 0 13.43115,-23.860876 l -0.03,-0.0676 a 22.492915,18.623454 0 0 0 -2.15678,-3.58818 v -15.01002 l -0.4021,-4.24206 a 18.848617,18.623454 0 0 0 -0.73082,-2.53034 l -0.0248,-0.068 a 18.848617,18.623454 0 0 0 -17.27231,-12.18654 z m -0.22949,5.49888 a 12.381761,9.9714642 0 0 1 11.34621,6.52506 l 0.0165,0.0364 a 12.381761,9.9714642 0 0 1 0.73856,3.73496 l 0.007,-4.3e-4 0.0357,0.29869 0.0517,0.68384 v 11.80527 a 22.492915,18.623454 0 0 0 -20.235351,-2.0087 22.492915,18.623454 0 0 0 -4.518223,1.87432 v -11.03328 l -0.06047,-1.25597 0.01809,4.3e-4 a 12.381761,9.9714642 0 0 1 8.061684,-10.05248 12.381761,9.9714642 0 0 1 4.53889,-0.60808 z" />
    <path
       id="path5017"
       style="opacity:0.603376;fill:url(#linearGradient7216);fill-opacity:1;stroke-width:0.146441"
       d="m 71.102128,38.096453 a 12.199443,10.310291 0 0 0 -4.47208,0.62863 12.199443,10.310291 0 0 0 -7.929234,10.6965 l 0.02119,-0.0847 0.0832,-0.30256 0.116272,-0.35988 0.09302,-0.25677 0.189136,-0.45488 0.164848,-0.34662 0.146761,-0.27987 0.106453,-0.18914 0.167949,-0.27943 0.128674,-0.19984 0.341064,-0.48314 0.175184,-0.22638 0.474906,-0.55245 0.424264,-0.43393 0.240295,-0.22594 0.385506,-0.33507 0.75551,-0.57642 0.240812,-0.16475 0.103353,-0.068 0.149344,-0.0958 0.09043,-0.0565 0.324011,-0.19384 0.227894,-0.12882 0.103869,-0.0569 0.337447,-0.17589 0.330212,-0.16005 0.22582,-0.10312 0.26976,-0.11682 0.3576,-0.14465 0.32969,-0.12281 0.34778,-0.11982 0.0651,-0.0214 0.32452,-0.101 0.22273,-0.0641 0.18138,-0.0497 0.37828,-0.095 0.43149,-0.0954 0.28371,-0.0557 0.0718,-0.0133 0.13436,-0.0235 0.12402,-0.021 0.0858,-0.0137 0.1509,-0.0226 0.15141,-0.0214 0.21084,-0.0274 0.2713,-0.0304 0.21911,-0.0214 0.29611,-0.0235 0.25579,-0.0154 0.19741,-0.009 0.3638,-0.01 0.53227,4.3e-4 0.26716,0.007 0.54261,0.0287 0.447,0.0385 1.04179,0.14208 0.8661,0.17544 1.0263,0.27945 0.83664,0.29013 0.74414,0.30981 0.61546,0.29742 0.72657,0.4044 0.43047,0.27044 0.74259,0.52977 0.63665,0.52936 0.4439,0.42108 0.24392,0.25248 0.44906,0.51394 0.3173,0.41038 0.22479,0.3201 0.15038,0.23065 0.15503,0.25461 0.0894,0.15535 0.1111,0.20454 0.10336,0.20198 0.10542,0.21996 0.0692,0.15363 0.0775,0.181 0.0822,0.20713 0.0765,0.20712 0.0661,0.19471 0.0548,0.17416 0.0496,0.1716 0.0713,0.27087 a 12.199443,10.310291 0 0 0 -0.67179,-4.55956 l -0.0165,-0.0377 a 12.199443,10.310291 0 0 0 -11.17916,-6.74672 z" />
    <g
       aria-label="R"
       transform="matrix(0.29937385,0,0,0.45219408,-91.928522,-181.92891)"
       id="text32098"
       style="font-weight:bold;font-size:12px;font-family:Georgia;-inkscape-font-specification:'Georgia, Bold';white-space:pre;shape-inside:url(#rect32100);display:inline;opacity:0.603376;fill:url(#linearGradient32167);stroke-width:0.354">
      <path
         d="m 466.33984,620.26437 h -53.125 q -13.76953,-21.09375 -22.94922,-33.59375 -9.08203,-12.5 -22.65625,-28.90625 h -5.37109 v 42.08984 q 0,3.51563 1.26953,5.95703 1.36719,2.44141 5.07813,4.10156 1.85547,0.78125 5.76172,1.66016 4.0039,0.78125 6.83593,1.07422 v 7.61719 h -73.92578 v -7.61719 q 2.83203,-0.29297 7.42188,-0.78125 4.6875,-0.58594 6.64062,-1.36719 3.71094,-1.5625 4.98047,-3.90625 1.26953,-2.4414 1.26953,-6.15234 v -97.75391 q 0,-3.51562 -1.07422,-5.85937 -1.07422,-2.34375 -5.17578,-4.10157 -3.125,-1.26953 -7.42187,-2.14843 -4.19922,-0.87891 -6.64063,-1.26953 v -7.61719 h 77.73438 q 26.07422,0 39.55078,8.20312 13.57422,8.10547 13.57422,24.60938 0,14.55078 -8.39844,23.4375 -8.30078,8.78906 -25.39063,13.76953 6.64063,8.59375 15.42969,19.92187 8.88672,11.32813 18.45703,23.14454 3.02735,3.80859 8.20313,9.375 5.27344,5.46875 9.27734,6.73828 2.2461,0.68359 5.66406,1.17187 3.51563,0.48828 4.98047,0.58594 z m -66.5039,-103.02735 q 0,-13.86718 -7.8125,-20.21484 -7.71485,-6.44531 -22.07032,-6.44531 h -7.71484 v 58.00781 h 7.42188 q 14.35546,0 22.26562,-7.51953 7.91016,-7.51953 7.91016,-23.82813 z"
         style="font-size:200px;fill:url(#linearGradient1135)"
         id="path142799" />
    </g>
    <g
       aria-label="T"
       transform="matrix(0.29937385,0,0,0.45219408,4.919785,-181.90572)"
       id="text32157"
       style="font-weight:bold;font-size:12px;font-family:Georgia;-inkscape-font-specification:'Georgia, Bold';white-space:pre;shape-inside:url(#rect32159);display:inline;opacity:0.603376;fill:url(#linearGradient32175);stroke-width:0.354">
      <path
         d="m 436.06641,521.33859 h -7.51954 q -3.02734,-8.88672 -9.76562,-19.04297 -6.64063,-10.15625 -12.30469,-10.9375 -3.125,-0.39063 -7.71484,-0.6836 -4.58985,-0.29297 -7.91016,-0.29297 h -4.58984 v 108.69141 q 0,3.51563 1.26953,6.25 1.26953,2.63672 4.98047,4.19922 2.24609,0.87891 6.93359,1.85547 4.78516,0.8789 8.10547,1.26953 v 7.61719 h -77.24609 v -7.61719 q 2.83203,-0.29297 7.91015,-0.78125 5.17578,-0.58594 7.03125,-1.36719 3.8086,-1.5625 5.07813,-4.19922 1.26953,-2.63672 1.26953,-6.25 V 490.38155 h -4.58984 q -3.32032,0 -7.91016,0.29297 -4.58984,0.29297 -7.71484,0.6836 -5.66407,0.78125 -12.40235,10.9375 -6.64062,10.15625 -9.66797,19.04297 h -7.51953 v -39.64844 h 134.27735 z"
         style="font-size:200px;fill:url(#linearGradient1137)"
         id="path1049" />
    </g>
    <path
       id="path76613"
       style="opacity:0.603376;fill:url(#linearGradient76628);fill-opacity:1;stroke-width:0.156925"
       d="m 25.465734,38.188233 a 13.783307,13.693978 0 0 0 -0.92364,0.0284 13.783307,13.693978 0 0 0 -0.972932,0.0986 l -0.07659,0.013 a 13.783307,13.693978 0 0 0 -0.874347,0.15243 l -0.06219,0.0136 a 13.783307,13.693978 0 0 0 -0.887998,0.21995 l -0.07354,0.0218 a 13.783307,13.693978 0 0 0 -0.887242,0.28854 13.783307,13.693978 0 0 0 -0.910749,0.36913 13.783307,13.693978 0 0 0 -0.381436,0.18673 l 0.164556,0.0435 0.148633,0.037 0.144081,0.0414 0.201714,0.0565 0.213847,0.0642 0.134983,0.0447 0.110714,0.0348 0.116778,0.0414 0.139532,0.0468 0.17138,0.0621 0.250248,0.0979 0.112238,0.0414 0.145599,0.0637 0.08491,0.0353 0.131947,0.0566 0.163798,0.0772 0.188064,0.0871 0.186549,0.0958 0.142565,0.0729 0.122842,0.0654 0.222947,0.12521 0.188065,0.10998 0.19868,0.12631 0.104654,0.0654 0.101618,0.0675 0.178964,0.12087 0.157731,0.11324 0.144082,0.10562 0.09403,0.0729 0.156215,0.12848 0.168348,0.13284 0.09556,0.0828 0.198682,0.17857 0.219912,0.20689 0.134983,0.13065 0.133465,0.13503 0.125882,0.13502 0.110715,0.12304 0.171382,0.19817 0.08189,0.10454 0.31698,0.4388 0.394328,0.57492 0.19413,0.3833 0.188067,0.35277 0.133464,0.29618 0.08947,0.1715 0.111469,0.28364 0.09707,0.26297 0.08113,0.239 0.05762,0.16333 0.05385,0.16169 0.05611,0.17858 0.03866,0.13665 0.0364,0.14046 0.05762,0.19872 0.03184,0.14156 0.05158,0.22158 0.02577,0.11543 0.03943,0.17965 0.01518,0.0708 0.01208,0.0577 0.242661,1.68938 0.04247,0.51722 0.02577,0.70231 0.03413,0.5172 -0.0084,0.48674 -0.0084,0.35115 -0.01289,0.63481 -0.0182,0.48346 -0.03639,0.5967 -0.03639,0.54442 -0.08494,0.6751 -0.09101,0.77092 -0.109205,0.60977 -0.200197,0.94947 -0.145599,0.53573 -0.09707,0.35932 -0.133464,0.42467 -0.192615,0.53898 -0.188824,0.47421 -0.146356,0.34843 -0.205507,0.42465 -0.210054,0.38493 -0.09024,0.16659 -0.182756,0.29943 -0.181998,0.28964 -0.188064,0.2831 -0.178967,0.24174 -0.127398,0.16115 -0.448926,0.52047 -0.461063,0.46604 -0.236597,0.21342 -0.220671,0.19816 -0.218398,0.18457 -0.219157,0.16659 -0.218395,0.1568 -0.103129,0.0772 -0.261624,0.17858 -0.429209,0.27384 -0.210055,0.12032 -0.154699,0.0926 a 13.783307,13.693978 0 0 0 0.383711,0.10009 l 0.282856,0.0675 a 13.783307,13.693978 0 0 0 0.570258,0.10616 l 0.376888,0.0659 a 13.783307,13.693978 0 0 0 0.786384,0.0892 l 0.286645,0.0212 a 13.783307,13.693978 0 0 0 0.650643,0.0278 l 0.254038,0.005 a 13.783307,13.693978 0 0 0 0.879656,-0.025 l 0.320015,-0.0305 a 13.783307,13.693978 0 0 0 0.641541,-0.0637 l 0.130432,-0.0197 a 13.783307,13.693978 0 0 0 0.6878,-0.11815 l 0.311671,-0.0631 a 13.783307,13.693978 0 0 0 0.589977,-0.14481 l 0.310153,-0.0816 a 13.783307,13.693978 0 0 0 0.866761,-0.28019 l 0.830365,-0.33212 a 13.783307,13.693978 0 0 0 0.02578,-0.0109 l 0.690834,-0.32721 a 13.783307,13.693978 0 0 0 0.04019,-0.0207 l 0.628648,-0.34244 a 13.783307,13.693978 0 0 0 0.0584,-0.0343 l 0.527793,-0.32502 a 13.783307,13.693978 0 0 0 0.06294,-0.0409 l 0.621066,-0.43175 a 13.783307,13.693978 0 0 0 0.05004,-0.0376 l 0.53386,-0.41703 a 13.783307,13.693978 0 0 0 0.02655,-0.0218 l 0.567229,-0.49651 a 13.783307,13.693978 0 0 0 0.01593,-0.0136 l 0.0076,-0.007 0.517937,-0.50687 a 13.783307,13.693978 0 0 0 0.04398,-0.0462 l 0.553577,-0.61193 a 13.783307,13.693978 0 0 0 0.02046,-0.0234 l 0.618034,-0.78562 a 13.783307,13.693978 0 0 0 0.0045,-0.006 l 0.0091,-0.013 0.425421,-0.62338 a 13.783307,13.693978 0 0 0 0.03866,-0.0594 l 0.45272,-0.76384 a 13.783307,13.693978 0 0 0 0.01896,-0.0343 l 0.42997,-0.85584 a 13.783307,13.693978 0 0 0 0.0045,-0.009 l 0.0037,-0.009 0.418595,-1.02517 a 13.783307,13.693978 0 0 0 0.01207,-0.0332 l 0.26693,-0.82754 a 13.783307,13.693978 0 0 0 0.01207,-0.0409 l 0.224465,-0.90266 a 13.783307,13.693978 0 0 0 0.0045,-0.0223 l 0.207782,-1.29683 a 13.783307,13.693978 0 0 0 0.006,-0.0529 l 0.07355,-1.10085 a 13.783307,13.693978 0 0 0 0.0014,-0.0621 l -0.0084,-0.86238 a 13.783307,13.693978 0 0 0 0,-0.004 l -7.6e-4,-0.006 -0.06977,-0.90974 a 13.783307,13.693978 0 0 0 -7.57e-4,-0.013 l -0.0014,-0.012 -0.14939,-0.99578 a 13.783307,13.693978 0 0 0 -7.6e-4,-0.006 l -0.0023,-0.009 -0.286646,-1.21301 a 13.783307,13.693978 0 0 0 -0.0023,-0.008 l -7.58e-4,-0.002 a 13.783307,13.693978 0 0 0 -0.01059,-0.0353 l -0.116777,-0.38218 a 13.783307,13.693978 0 0 0 -0.01593,-0.0491 l -0.200955,-0.56729 a 13.783307,13.693978 0 0 0 -0.323805,-0.78725 l -0.467143,-0.94677 a 13.783307,13.693978 0 0 0 -0.04323,-0.0729 l -0.574809,-0.94131 a 13.783307,13.693978 0 0 0 -0.237356,-0.34355 l -0.36172,-0.48944 a 13.783307,13.693978 0 0 0 -0.423146,-0.52701 l -0.178964,-0.196 a 13.783307,13.693978 0 0 0 -0.467886,-0.50306 l -0.153941,-0.14917 a 13.783307,13.693978 0 0 0 -0.470159,-0.43936 l -0.351864,-0.30162 a 13.783307,13.693978 0 0 0 -0.380679,-0.30813 l -0.463947,-0.34207 a 13.783307,13.693978 0 0 0 -0.374613,-0.26078 l -0.363995,-0.2303 a 13.783307,13.693978 0 0 0 -0.433003,-0.25805 l -0.441346,-0.23846 a 13.783307,13.693978 0 0 0 -0.443618,-0.22377 l -0.388263,-0.1764 a 13.783307,13.693978 0 0 0 -0.543719,-0.22703 l -0.235081,-0.0909 a 13.783307,13.693978 0 0 0 -0.819749,-0.27548 l -0.02199,-0.007 a 13.783307,13.693978 0 0 0 -0.0023,-5.2e-4 l -0.0084,-0.002 a 13.783307,13.693978 0 0 0 -0.893305,-0.23085 l -0.198679,-0.0403 a 13.783307,13.693978 0 0 0 -0.680978,-0.12575 l -0.30333,-0.0435 a 13.783307,13.693978 0 0 0 -0.570258,-0.0637 l -0.412529,-0.0337 a 13.783307,13.693978 0 0 0 -0.64306,-0.0261 z" />
    <path
       id="path102712"
       style="opacity:0.603376;fill:url(#linearGradient102840);fill-opacity:1;stroke-width:0.0592764"
       d="m 128.15728,40.188313 -0.0549,5e-4 a 7.2641753,11.147162 0 0 0 -0.44791,0.0309 l -0.0487,0.006 a 7.2641753,11.147162 0 0 0 -0.46032,0.0799 l -0.0171,0.004 a 7.2641753,11.147162 0 0 0 -0.20245,0.0566 l 0.0543,0.0238 0.11389,0.0578 0.17193,0.10615 0.15948,0.11646 0.0662,0.0526 0.0705,0.0608 0.0901,0.0804 0.11185,0.10512 0.16051,0.16284 0.15949,0.18758 0.0983,0.11234 0.15016,0.19169 0.0549,0.0752 0.0819,0.11336 0.0744,0.1072 0.06,0.0845 0.16257,0.24631 0.0632,0.10204 0.20815,0.34217 0.28686,0.50398 0.0891,0.17107 0.0777,0.14739 0.0787,0.15459 0.23094,0.46894 0.26615,0.5689 0.0756,0.17109 0.2123,0.47511 0.0674,0.15769 0.0983,0.22365 0.51365,1.22284 0.28116,0.72297 0.18744,0.51018 0.76739,2.16328 0.32775,1.08421 0.2817,0.99405 0.12271,0.47203 0.0704,0.26847 0.0383,0.17778 0.10096,0.41999 0.20816,9.8e-4 h 0.20403 l 0.78082,0.002 h 0.56129 l 0.32207,-0.002 a 7.2641753,11.147162 0 0 0 0.009,-0.0582 l 0.003,-0.019 a 7.2641753,11.147162 0 0 0 0.006,-0.0453 7.2641753,11.147162 0 0 0 0.0269,-0.20097 c 4.6e-4,-0.004 5.6e-4,-0.005 9.8e-4,-0.009 a 7.2641753,11.147162 0 0 0 0.004,-0.0304 l 0.0171,-0.14273 9.7e-4,-0.0108 0.0258,-0.24272 a 7.2641753,11.147162 0 0 0 0.005,-0.0448 l 5.1e-4,-0.01 0.0528,-0.70443 a 7.2641753,11.147162 0 0 0 9.8e-4,-0.0113 l 5.1e-4,-0.0165 0.015,-0.34835 0.007,-0.28909 a 7.2641753,11.147162 0 0 0 0.002,-0.1953 l 5.1e-4,-0.0304 a 7.2641753,11.147162 0 0 0 0,-5.1e-4 7.2641753,11.147162 0 0 0 0,-5.2e-4 7.2641753,11.147162 0 0 0 0,-5.2e-4 7.2641753,11.147162 0 0 0 0,-5e-4 7.2641753,11.147162 0 0 0 0,-5.2e-4 7.2641753,11.147162 0 0 0 0,-5.2e-4 7.2641753,11.147162 0 0 0 0,-5.1e-4 7.2641753,11.147162 0 0 0 0,-5.2e-4 7.2641753,11.147162 0 0 0 0,-5.2e-4 7.2641753,11.147162 0 0 0 0,-5.1e-4 7.2641753,11.147162 0 0 0 0,-5.1e-4 7.2641753,11.147162 0 0 0 0,-5.3e-4 7.2641753,11.147162 0 0 0 0,-5e-4 7.2641753,11.147162 0 0 0 0,-5.1e-4 7.2641753,11.147162 0 0 0 0,-5.3e-4 7.2641753,11.147162 0 0 0 0,-5.1e-4 7.2641753,11.147162 0 0 0 0,-5.1e-4 7.2641753,11.147162 0 0 0 0,-5.3e-4 7.2641753,11.147162 0 0 0 0,-5.2e-4 7.2641753,11.147162 0 0 0 0,-5e-4 7.2641753,11.147162 0 0 0 0,-5.2e-4 7.2641753,11.147162 0 0 0 0,-5.2e-4 7.2641753,11.147162 0 0 0 0,-5.1e-4 7.2641753,11.147162 0 0 0 0,-5.1e-4 7.2641753,11.147162 0 0 0 0,-5.3e-4 7.2641753,11.147162 0 0 0 0,-5.1e-4 7.2641753,11.147162 0 0 0 0,-5.1e-4 7.2641753,11.147162 0 0 0 0,-5.2e-4 7.2641753,11.147162 0 0 0 0,-5.2e-4 7.2641753,11.147162 0 0 0 0,-5e-4 7.2641753,11.147162 0 0 0 0,-5.2e-4 7.2641753,11.147162 0 0 0 0,-5.2e-4 7.2641753,11.147162 0 0 0 0,-5.1e-4 7.2641753,11.147162 0 0 0 0,-5.2e-4 7.2641753,11.147162 0 0 0 0,-5.1e-4 7.2641753,11.147162 0 0 0 0,-5.2e-4 7.2641753,11.147162 0 0 0 0,-5.2e-4 7.2641753,11.147162 0 0 0 0,-5e-4 7.2641753,11.147162 0 0 0 0,-5.3e-4 7.2641753,11.147162 0 0 0 0,-5.1e-4 7.2641753,11.147162 0 0 0 0,-5.1e-4 7.2641753,11.147162 0 0 0 0,-5.2e-4 7.2641753,11.147162 0 0 0 0,-5.2e-4 7.2641753,11.147162 0 0 0 0,-5.1e-4 7.2641753,11.147162 0 0 0 0,-5.2e-4 7.2641753,11.147162 0 0 0 0,-5.1e-4 7.2641753,11.147162 0 0 0 0,-5.1e-4 7.2641753,11.147162 0 0 0 0,-5.2e-4 7.2641753,11.147162 0 0 0 0,-5.2e-4 7.2641753,11.147162 0 0 0 0,-5.1e-4 7.2641753,11.147162 0 0 0 0,-5.2e-4 7.2641753,11.147162 0 0 0 0,-5.1e-4 7.2641753,11.147162 0 0 0 0,-5.3e-4 7.2641753,11.147162 0 0 0 0,-5e-4 7.2641753,11.147162 0 0 0 0,-5.2e-4 7.2641753,11.147162 0 0 0 0,-5.2e-4 7.2641753,11.147162 0 0 0 0,-5.1e-4 7.2641753,11.147162 0 0 0 0,-5.2e-4 7.2641753,11.147162 0 0 0 0,-5.1e-4 7.2641753,11.147162 0 0 0 0,-5.2e-4 7.2641753,11.147162 0 0 0 0,-5.2e-4 7.2641753,11.147162 0 0 0 0,-5.1e-4 7.2641753,11.147162 0 0 0 -0.002,-0.21076 v -0.0186 a 7.2641753,11.147162 0 0 0 -5.2e-4,-0.017 7.2641753,11.147162 0 0 0 -0.003,-0.1314 l -0.0206,-0.54624 a 7.2641753,11.147162 0 0 0 -0.004,-0.0747 l -5.2e-4,-0.0128 a 7.2641753,11.147162 0 0 0 -0.0145,-0.21746 l -9.8e-4,-0.0103 -0.0543,-0.59777 a 7.2641753,11.147162 0 0 0 -0.0238,-0.2087 7.2641753,11.147162 0 0 0 -0.0249,-0.19376 l -0.008,-0.0623 a 7.2641753,11.147162 0 0 0 -0.002,-0.0123 7.2641753,11.147162 0 0 0 -0.0171,-0.11441 l -0.084,-0.51737 a 7.2641753,11.147162 0 0 0 -0.0192,-0.10872 l -0.002,-0.008 -0.0792,-0.39575 a 7.2641753,11.147162 0 0 0 -0.0197,-0.0927 l -0.002,-0.01 -0.0787,-0.33701 a 7.2641753,11.147162 0 0 0 -0.1745,-0.65498 7.2641753,11.147162 0 0 0 -0.20452,-0.64259 l -0.0336,-0.0959 a 7.2641753,11.147162 0 0 0 -0.22732,-0.60343 7.2641753,11.147162 0 0 0 -0.21903,-0.50038 l -0.13618,-0.28703 a 7.2641753,11.147162 0 0 0 -0.16725,-0.33082 l -0.11908,-0.22004 a 7.2641753,11.147162 0 0 0 -0.25271,-0.43545 l -0.0201,-0.034 a 7.2641753,11.147162 0 0 0 -0.31378,-0.47049 l -0.0617,-0.0871 a 7.2641753,11.147162 0 0 0 -0.35159,-0.4607 7.2641753,11.147162 0 0 0 -0.34433,-0.39215 l -0.116,-0.12213 a 7.2641753,11.147162 0 0 0 -0.30912,-0.30403 l -0.0653,-0.0613 a 7.2641753,11.147162 0 0 0 -0.32569,-0.27363 l -0.17658,-0.13708 a 7.2641753,11.147162 0 0 0 -0.31171,-0.22158 l -0.0792,-0.0526 a 7.2641753,11.147162 0 0 0 -0.40648,-0.23859 l -0.0843,-0.0433 a 7.2641753,11.147162 0 0 0 -0.39663,-0.18551 l -0.0321,-0.0139 a 7.2641753,11.147162 0 0 0 -0.42769,-0.15305 l -0.10614,-0.0309 a 7.2641753,11.147162 0 0 0 -0.41788,-0.10359 l -0.0325,-0.006 a 7.2641753,11.147162 0 0 0 -0.44944,-0.0639 l -0.0296,-0.004 a 7.2641753,11.147162 0 0 0 -0.45617,-0.0165 z" />
    <path
       style="opacity:0.36129;fill:#000000;fill-opacity:1;stroke-width:0.0936625"
       d="m 58.540354,64.341333 v -0.0611"
       id="path103657" />
    <path
       style="opacity:0.36129;fill:#f1eee0;fill-opacity:1;stroke:#92bcd9;stroke-width:0.132292;stroke-dasharray:none;stroke-opacity:1;filter:url(#filter131690)"
       d="m 89.758778,69.930073 -6.46485,-5.45436"
       id="path129320" />
    <path
       style="opacity:0.36129;fill:#f1eee0;fill-opacity:1;stroke:#92bcd9;stroke-width:0.132292;stroke-dasharray:none;stroke-opacity:1;filter:url(#filter131690)"
       d="m 89.758778,69.930073 -6.46485,-5.45436"
       id="path132956" />
    <path
       style="opacity:0.36129;fill:#f1eee0;fill-opacity:1;stroke:#92bcd9;stroke-width:0.132292;stroke-dasharray:none;stroke-opacity:1;filter:url(#filter131690)"
       d="m 100.54567,158.66245 -6.464854,-5.45436"
       id="path137722"
       transform="matrix(0.09085316,-0.88597761,1.0777834,0.07468464,-121.59829,141.51179)" />
    <path
       id="rect138450"
       style="opacity:0.36129;fill:url(#linearGradient138458);stroke:#92bcd9;stroke-width:0"
       d="m 120.55918,45.480419 -10.38336,-0.146133 0.005,-5.516648 10.38336,0.146133 z" />
    <path
       id="rect147943"
       style="opacity:0.711429;fill:#ffffff;stroke:#000204;stroke-width:0;filter:url(#filter148426)"
       d="m 61.415957,76.173373 h 19.341321 c 0.0652,0 0.11771,0.0525 0.11771,0.11771 v 7.96423 c 0,0.0652 -0.0525,0.11771 -0.11771,0.11771 H 61.415957 c -0.06521,0 -0.117712,-0.0525 -0.117712,-0.11771 v -7.96423 c 0,-0.0652 0.0525,-0.11771 0.117712,-0.11771 z" />
    <g
       aria-label="TEXT"
       transform="matrix(0.26458333,0,0,0.26458333,-34.378652,-90.742438)"
       id="text148797"
       style="font-weight:bold;font-size:13.3333px;-inkscape-font-specification:'sans-serif, Bold';white-space:pre;shape-inside:url(#rect148799);display:inline;opacity:0.711429;fill:url(#linearGradient148919);stroke:#000204;stroke-width:0.1;filter:url(#filter149330)">
      <path
         d="m 380.57812,641.57562 h -5.44921 v 14.07421 h -4.5 v -14.07421 h -5.44922 v -3.375 h 15.39843 z"
         style="font-size:24px;fill:url(#linearGradient1139)"
         id="path889" />
      <path
         d="m 395.90625,655.64983 h -12.62109 v -17.44921 h 12.62109 v 3.375 h -8.14453 v 3.01171 h 7.55859 v 3.375 h -7.55859 v 4.3125 h 8.14453 z"
         style="font-size:24px;fill:url(#linearGradient1141)"
         id="path891" />
      <path
         d="m 415.5,655.64983 h -5.20313 l -3.76171,-5.74218 -3.83204,5.74218 h -4.96875 l 6.1875,-8.78906 -6.05859,-8.66015 h 5.19141 l 3.63281,5.4375 3.73828,-5.4375 h 4.98047 l -6.09375,8.48437 z"
         style="font-size:24px;fill:url(#linearGradient1143)"
         id="path893" />
      <path
         d="m 431.66016,641.57562 h -5.44922 v 14.07421 h -4.5 v -14.07421 h -5.44922 v -3.375 h 15.39844 z"
         style="font-size:24px;fill:url(#linearGradient1145)"
         id="path895" />
    </g>
  </g>
  <metadata
     id="metadata132">
    <rdf:RDF>
      <cc:Work
         rdf:about="">
        <dc:title>ROTten Text app icon</dc:title>
        <dc:creator>
          <cc:Agent>
            <dc:title>Moataz ZS</dc:title>
          </cc:Agent>
        </dc:creator>
        <dc:publisher>
          <cc:Agent>
            <dc:title>Moataz ZS</dc:title>
          </cc:Agent>
        </dc:publisher>
        <dc:contributor>
          <cc:Agent>
            <dc:title>Moataz ZS</dc:title>
          </cc:Agent>
        </dc:contributor>
        <dc:description>An icon for ROTten Text app</dc:description>
        <dc:subject>
          <rdf:Bag>
            <rdf:li>Android</rdf:li>
            <rdf:li>Windows</rdf:li>
          </rdf:Bag>
        </dc:subject>
        <dc:language>English</dc:language>
        <dc:date>2023/02</dc:date>
      </cc:Work>
    </rdf:RDF>
  </metadata>
</svg>
