<?xml version="1.0" encoding="UTF-8" standalone="no"?>
<svg
   width="456"
   height="456"
   viewBox="0 0 456 456"
   version="1.1"
   xml:space="preserve"
   style="clip-rule:evenodd;fill-rule:evenodd;stroke-linejoin:round;stroke-miterlimit:2"
   id="svg10"
   xmlns:xlink="http://www.w3.org/1999/xlink"
   xmlns="http://www.w3.org/2000/svg"
   xmlns:svg="http://www.w3.org/2000/svg"><defs
   id="defs14"><linearGradient
     xlink:href="#linearGradient148917"
     id="linearGradient148919"
     x1="417.82208"
     y1="626.32745"
     x2="369.97107"
     y2="667.52301"
     gradientUnits="userSpaceOnUse" /><linearGradient
     id="linearGradient148917"><stop
       style="stop-color:#138086;stop-opacity:1;"
       offset="0"
       id="stop148913" /><stop
       style="stop-color:#7ef29d;stop-opacity:1;"
       offset="1"
       id="stop148915" /></linearGradient><filter
     style="color-interpolation-filters:sRGB"
     id="filter149330"
     x="-0.020306716"
     y="-0.071636483"
     width="1.0391092"
     height="1.1604657"><feFlood
       flood-opacity="0.498039"
       flood-color="rgb(0,0,0)"
       result="flood"
       id="feFlood149320" /><feComposite
       in="flood"
       in2="SourceGraphic"
       operator="in"
       result="composite1"
       id="feComposite149322" /><feGaussianBlur
       in="composite1"
       stdDeviation="0.5"
       result="blur"
       id="feGaussianBlur149324" /><feOffset
       dx="-0.1"
       dy="0.3"
       result="offset"
       id="feOffset149326" /><feComposite
       in="SourceGraphic"
       in2="offset"
       operator="over"
       result="composite2"
       id="feComposite149328" /></filter><filter
     style="color-interpolation-filters:sRGB"
     id="filter148426"
     x="-0.066405348"
     y="-0.14634778"
     width="1.1277026"
     height="1.3292825"><feFlood
       flood-opacity="0.498039"
       flood-color="rgb(0,0,0)"
       result="flood"
       id="feFlood148416" /><feComposite
       in="flood"
       in2="SourceGraphic"
       operator="out"
       result="composite1"
       id="feComposite148418" /><feGaussianBlur
       in="composite1"
       stdDeviation="0.5"
       result="blur"
       id="feGaussianBlur148420" /><feOffset
       dx="-0.1"
       dy="0.3"
       result="offset"
       id="feOffset148422" /><feComposite
       in="offset"
       in2="SourceGraphic"
       operator="atop"
       result="composite2"
       id="feComposite148424" /></filter><linearGradient
     xlink:href="#linearGradient138456"
     id="linearGradient138458"
     x1="150.91039"
     y1="130.14355"
     x2="150.91039"
     y2="128.76378"
     gradientUnits="userSpaceOnUse"
     gradientTransform="matrix(-3.7795041,-0.05319185,0.01330389,-15.11135,1145.0292,1975.6954)" /><linearGradient
     id="linearGradient138456"><stop
       style="stop-color:#138086;stop-opacity:1;"
       offset="0"
       id="stop138452" /><stop
       style="stop-color:#f1eee0;stop-opacity:0;"
       offset="1"
       id="stop138454" /></linearGradient><filter
     style="color-interpolation-filters:sRGB"
     id="filter131690"
     x="-0.34071231"
     y="-0.62528992"
     width="1.6814246"
     height="2.0305724"><feFlood
       flood-opacity="0.498039"
       flood-color="rgb(128,128,128)"
       result="flood"
       id="feFlood131680" /><feComposite
       in="flood"
       in2="SourceGraphic"
       operator="in"
       result="composite1"
       id="feComposite131682" /><feGaussianBlur
       in="composite1"
       stdDeviation="0.2"
       result="blur"
       id="feGaussianBlur131684" /><feOffset
       dx="-6.38378e-16"
       dy="-0.2"
       result="offset"
       id="feOffset131686" /><feComposite
       in="SourceGraphic"
       in2="offset"
       operator="over"
       result="fbSourceGraphic"
       id="feComposite131688" /><feColorMatrix
       result="fbSourceGraphicAlpha"
       in="fbSourceGraphic"
       values="0 0 0 -1 0 0 0 0 -1 0 0 0 0 -1 0 0 0 0 1 0"
       id="feColorMatrix135015" /><feFlood
       id="feFlood135017"
       flood-opacity="0.498039"
       flood-color="rgb(0,0,0)"
       result="flood"
       in="fbSourceGraphic" /><feComposite
       in2="fbSourceGraphic"
       id="feComposite135019"
       in="flood"
       operator="in"
       result="composite1" /><feGaussianBlur
       id="feGaussianBlur135021"
       in="composite1"
       stdDeviation="0.7"
       result="blur" /><feOffset
       id="feOffset135023"
       dx="-6.38378e-16"
       dy="-1"
       result="offset" /><feComposite
       in2="offset"
       id="feComposite135025"
       in="fbSourceGraphic"
       operator="over"
       result="composite2" /></filter><linearGradient
     xlink:href="#linearGradient102838"
     id="linearGradient102840"
     x1="162.25311"
     y1="131.80588"
     x2="171.00787"
     y2="135.84077"
     gradientUnits="userSpaceOnUse"
     gradientTransform="matrix(3.6869261,0,0,3.7059503,21.845931,-475.5952)" /><linearGradient
     id="linearGradient102838"><stop
       style="stop-color:#138086;stop-opacity:1;"
       offset="0"
       id="stop102834" /><stop
       style="stop-color:#548183;stop-opacity:0;"
       offset="1"
       id="stop102836" /></linearGradient><linearGradient
     xlink:href="#linearGradient76626"
     id="linearGradient76628"
     x1="57.531891"
     y1="129.31459"
     x2="67.030098"
     y2="151.63408"
     gradientUnits="userSpaceOnUse"
     gradientTransform="matrix(5.5462572,0,0,3.9818854,-105.36578,-515.06532)" /><linearGradient
     id="linearGradient76626"><stop
       style="stop-color:#1f2f43;stop-opacity:1;"
       offset="0"
       id="stop76622" /><stop
       style="stop-color:#000000;stop-opacity:0;"
       offset="1"
       id="stop76624" /></linearGradient><linearGradient
     xlink:href="#linearGradient32173"
     id="linearGradient32175"
     x1="301.78906"
     y1="481.69016"
     x2="459.04492"
     y2="652.24298"
     gradientUnits="userSpaceOnUse" /><linearGradient
     id="linearGradient32173"><stop
       style="stop-color:#7ef29d;stop-opacity:1;"
       offset="0"
       id="stop32169" /><stop
       style="stop-color:#0f68a9;stop-opacity:0.90196079;"
       offset="1"
       id="stop32171" /></linearGradient><linearGradient
     xlink:href="#linearGradient32165"
     id="linearGradient32167"
     x1="307.25781"
     y1="481.69016"
     x2="393.86914"
     y2="706.50983"
     gradientUnits="userSpaceOnUse" /><linearGradient
     id="linearGradient32165"><stop
       style="stop-color:#0f68a9;stop-opacity:0.90196079;"
       offset="0"
       id="stop32161" /><stop
       style="stop-color:#7ef29d;stop-opacity:1;"
       offset="1"
       id="stop32163" /></linearGradient><linearGradient
     xlink:href="#linearGradient7214"
     id="linearGradient7216"
     x1="88.024605"
     y1="134.90134"
     x2="128.83377"
     y2="143.79535"
     gradientUnits="userSpaceOnUse"
     gradientTransform="matrix(3.7795276,0,0,3.1297981,6.0149661,-380.4196)" /><linearGradient
     id="linearGradient7214"><stop
       style="stop-color:#138086;stop-opacity:1;"
       offset="0"
       id="stop7210" /><stop
       style="stop-color:#534666;stop-opacity:0;"
       offset="1"
       id="stop7212" /></linearGradient><linearGradient
     xlink:href="#linearGradient32165"
     id="linearGradient9526"
     x1="128.83377"
     y1="192.74049"
     x2="83.861275"
     y2="117.04166"
     gradientUnits="userSpaceOnUse"
     gradientTransform="matrix(3.7800873,0,0,3.1297981,5.9680168,-380.4196)" /><linearGradient
     xlink:href="#linearGradient32165"
     id="linearGradient1138"
     gradientUnits="userSpaceOnUse"
     x1="307.25781"
     y1="481.69016"
     x2="393.86914"
     y2="706.50983" /><linearGradient
     xlink:href="#linearGradient32173"
     id="linearGradient1140"
     gradientUnits="userSpaceOnUse"
     x1="301.78906"
     y1="481.69016"
     x2="459.04492"
     y2="652.24298" /><linearGradient
     xlink:href="#linearGradient148917"
     id="linearGradient1142"
     gradientUnits="userSpaceOnUse"
     x1="417.82208"
     y1="626.32745"
     x2="369.97107"
     y2="667.52301" /><linearGradient
     xlink:href="#linearGradient148917"
     id="linearGradient1144"
     gradientUnits="userSpaceOnUse"
     x1="417.82208"
     y1="626.32745"
     x2="369.97107"
     y2="667.52301" /><linearGradient
     xlink:href="#linearGradient148917"
     id="linearGradient1146"
     gradientUnits="userSpaceOnUse"
     x1="417.82208"
     y1="626.32745"
     x2="369.97107"
     y2="667.52301" /><linearGradient
     xlink:href="#linearGradient148917"
     id="linearGradient1148"
     gradientUnits="userSpaceOnUse"
     x1="417.82208"
     y1="626.32745"
     x2="369.97107"
     y2="667.52301" /></defs>
    
    
    
    
<g
   id="g1188"
   transform="matrix(0.76506146,0,0,0.75821763,-75.204378,140.08272)"><path
     id="path344"
     style="opacity:0.603376;fill:url(#linearGradient9526);fill-opacity:1;stroke-width:0.138893"
     d="m 409.92632,-14.085763 a 71.238868,70.387858 0 0 0 -26.11327,4.2924847 71.238868,70.387858 0 0 0 -45.10434,51.5876033 l -1.55101,31.839497 v 39.923108 a 85.012593,70.387858 0 0 0 -9.0365,63.05794 85.012593,70.387858 0 0 0 108.9673,41.94324 85.012593,70.387858 0 0 0 50.7634,-90.18286 l -0.11339,-0.25549 A 85.012593,70.387858 0 0 0 479.5869,114.55813 V 57.827346 l -1.51975,-16.032983 a 71.238868,70.387858 0 0 0 -2.76215,-9.56349 l -0.0937,-0.257008 A 71.238868,70.387858 0 0 0 409.93009,-14.085499 Z M 409.05895,6.6974053 A 46.797207,37.687424 0 0 1 451.94227,31.35905 l 0.0624,0.137575 a 46.797207,37.687424 0 0 1 2.79141,14.116384 l 0.0265,-0.0016 0.13493,1.128907 0.1954,2.584592 V 93.943227 A 85.012593,70.387858 0 0 0 378.67276,86.35129 85.012593,70.387858 0 0 0 361.59601,93.435334 V 51.734748 l -0.22855,-4.746974 0.0684,0.0016 A 46.797207,37.687424 0 0 1 391.90519,8.9957739 46.797207,37.687424 0 0 1 409.06005,6.6975187 Z" /><path
     id="path5017"
     style="opacity:0.603376;fill:url(#linearGradient7216);fill-opacity:1;stroke-width:0.553478"
     d="M 409.07358,-5.7579145 A 46.108132,38.968029 0 0 0 392.17123,-3.38199 46.108132,38.968029 0 0 0 362.20247,37.045727 l 0.0801,-0.320126 0.31445,-1.143534 0.43946,-1.360176 0.35157,-0.97047 0.71484,-1.719231 0.62305,-1.31006 0.55469,-1.057776 0.40234,-0.71486 0.63477,-1.056114 0.48633,-0.7553 1.28906,-1.826041 0.66211,-0.85561 1.79492,-2.088 1.60352,-1.64005 0.9082,-0.853947 1.45703,-1.266406 2.85547,-2.178595 0.91016,-0.622678 0.39062,-0.257007 0.56445,-0.362079 0.34178,-0.213543 1.22461,-0.732624 0.86133,-0.486879 0.39258,-0.215055 1.27539,-0.664781 1.24805,-0.604913 0.85349,-0.389745 1.01956,-0.441525 1.35156,-0.546708 1.24608,-0.4641642 1.31444,-0.452863 0.24605,-0.080882 1.22653,-0.3817323 0.84181,-0.2422677 0.68553,-0.1878425 1.42972,-0.3590552 1.63083,-0.3605669 1.07229,-0.2105197 0.27137,-0.050268 0.50782,-0.088819 0.46874,-0.07937 0.32428,-0.05178 0.57033,-0.085417 0.57226,-0.080882 0.79687,-0.1035591 1.02539,-0.1148976 0.82813,-0.080882 1.11916,-0.088819 0.96676,-0.058205 0.74612,-0.034016 1.37499,-0.037795 2.01173,0.00163 1.00974,0.026457 2.05081,0.1084725 1.68945,0.1455118 3.93747,0.5369953 3.27345,0.6630803 3.87893,1.056189 3.1621,1.0965543 2.8125,1.170935 2.32615,1.124108 2.74609,1.528441 1.62697,1.022135 2.80664,2.00228 2.40624,2.000731 1.67773,1.591484 0.92191,0.954255 1.69723,1.94245 1.19924,1.551043 0.8496,1.209826 0.56837,0.871748 0.58594,0.962306 0.33789,0.58715 0.4199,0.773064 0.39066,0.763389 0.39843,0.831345 0.26155,0.580649 0.29291,0.684094 0.31068,0.782854 0.28913,0.782816 0.24983,0.735911 0.20712,0.658243 0.18746,0.648567 0.26948,1.023761 a 46.108132,38.968029 0 0 0 -2.53905,-17.232983 l -0.0624,-0.142488 A 46.108132,38.968029 0 0 0 409.07343,-5.7591239 Z" /><g
     aria-label="R"
     transform="matrix(1.1314917,0,0,1.70908,-207.10528,-837.34983)"
     id="text32098"
     style="font-weight:bold;font-size:12px;font-family:Georgia;-inkscape-font-specification:'Georgia, Bold';white-space:pre;shape-inside:url(#rect32100);display:inline;opacity:0.603376;fill:url(#linearGradient32167);stroke-width:0.354"><path
       d="m 466.33984,620.26437 h -53.125 q -13.76953,-21.09375 -22.94922,-33.59375 -9.08203,-12.5 -22.65625,-28.90625 h -5.37109 v 42.08984 q 0,3.51563 1.26953,5.95703 1.36719,2.44141 5.07813,4.10156 1.85547,0.78125 5.76172,1.66016 4.0039,0.78125 6.83593,1.07422 v 7.61719 h -73.92578 v -7.61719 q 2.83203,-0.29297 7.42188,-0.78125 4.6875,-0.58594 6.64062,-1.36719 3.71094,-1.5625 4.98047,-3.90625 1.26953,-2.4414 1.26953,-6.15234 v -97.75391 q 0,-3.51562 -1.07422,-5.85937 -1.07422,-2.34375 -5.17578,-4.10157 -3.125,-1.26953 -7.42187,-2.14843 -4.19922,-0.87891 -6.64063,-1.26953 v -7.61719 h 77.73438 q 26.07422,0 39.55078,8.20312 13.57422,8.10547 13.57422,24.60938 0,14.55078 -8.39844,23.4375 -8.30078,8.78906 -25.39063,13.76953 6.64063,8.59375 15.42969,19.92187 8.88672,11.32813 18.45703,23.14454 3.02735,3.80859 8.20313,9.375 5.27344,5.46875 9.27734,6.73828 2.2461,0.68359 5.66406,1.17187 3.51563,0.48828 4.98047,0.58594 z m -66.5039,-103.02735 q 0,-13.86718 -7.8125,-20.21484 -7.71485,-6.44531 -22.07032,-6.44531 h -7.71484 v 58.00781 h 7.42188 q 14.35546,0 22.26562,-7.51953 7.91016,-7.51953 7.91016,-23.82813 z"
       style="font-size:200px;fill:url(#linearGradient1138)"
       id="path142799" /></g><g
     aria-label="T"
     transform="matrix(1.1314917,0,0,1.70908,158.93559,-837.26218)"
     id="text32157"
     style="font-weight:bold;font-size:12px;font-family:Georgia;-inkscape-font-specification:'Georgia, Bold';white-space:pre;shape-inside:url(#rect32159);display:inline;opacity:0.603376;fill:url(#linearGradient32175);stroke-width:0.354"><path
       d="m 436.06641,521.33859 h -7.51954 q -3.02734,-8.88672 -9.76562,-19.04297 -6.64063,-10.15625 -12.30469,-10.9375 -3.125,-0.39063 -7.71484,-0.6836 -4.58985,-0.29297 -7.91016,-0.29297 h -4.58984 v 108.69141 q 0,3.51563 1.26953,6.25 1.26953,2.63672 4.98047,4.19922 2.24609,0.87891 6.93359,1.85547 4.78516,0.8789 8.10547,1.26953 v 7.61719 h -77.24609 v -7.61719 q 2.83203,-0.29297 7.91015,-0.78125 5.17578,-0.58594 7.03125,-1.36719 3.8086,-1.5625 5.07813,-4.19922 1.26953,-2.63672 1.26953,-6.25 V 490.38155 h -4.58984 q -3.32032,0 -7.91016,0.29297 -4.58984,0.29297 -7.71484,0.6836 -5.66407,0.78125 -12.40235,10.9375 -6.64062,10.15625 -9.66797,19.04297 h -7.51953 v -39.64844 h 134.27735 z"
       style="font-size:200px;fill:url(#linearGradient1140)"
       id="path1049" /></g><path
     id="path76613"
     style="opacity:0.603376;fill:url(#linearGradient76628);fill-opacity:1;stroke-width:0.593102"
     d="m 236.58957,-5.4110294 a 52.094389,51.756768 0 0 0 -3.49093,0.1073385 52.094389,51.756768 0 0 0 -3.67722,0.3726615 l -0.28947,0.049134 a 52.094389,51.756768 0 0 0 -3.30462,0.5761134 l -0.23505,0.051402 a 52.094389,51.756768 0 0 0 -3.35621,0.8313071 l -0.27795,0.082394 a 52.094389,51.756768 0 0 0 -3.35336,1.0905449 52.094389,51.756768 0 0 0 -3.4422,1.395137 52.094389,51.756768 0 0 0 -1.44164,0.70575119 l 0.62194,0.16440945 0.56176,0.13984253 0.54456,0.15647244 0.76238,0.21354331 0.80824,0.24264567 0.51018,0.16894488 0.41844,0.13152753 0.44137,0.1564725 0.52736,0.1768819 0.64774,0.2347086 0.94582,0.3700158 0.42421,0.1564724 0.55029,0.2407559 0.32092,0.1334174 0.4987,0.2139212 0.61908,0.2917796 0.71079,0.3291968 0.70507,0.3620787 0.53883,0.2755276 0.46428,0.2471811 0.84263,0.4732347 0.7108,0.4156724 0.75092,0.4773921 0.39554,0.2471811 0.38407,0.2551182 0.6764,0.4568315 0.59615,0.4279937 0.54456,0.3991937 0.35539,0.2755275 0.59042,0.4855937 0.63627,0.5020725 0.36117,0.3129449 0.75093,0.6749102 0.83116,0.7819463 0.51017,0.493796 0.50444,0.510349 0.47577,0.510312 0.41845,0.465033 0.64775,0.748989 0.3095,0.395112 1.19804,1.658457 1.49037,2.172926 0.73372,1.448693 0.7108,1.333303 0.50443,1.119421 0.33816,0.648189 0.4213,1.072025 0.36688,0.993903 0.30663,0.903307 0.21778,0.61731 0.20353,0.611112 0.21206,0.674948 0.14612,0.516472 0.13758,0.530873 0.21777,0.751067 0.12034,0.53503 0.19495,0.837468 0.0974,0.436271 0.14903,0.678992 0.0574,0.267591 0.0457,0.218078 0.91714,6.385059 0.16052,1.954847 0.0974,2.6544 0.129,1.954772 -0.0317,1.839647 -0.0318,1.327181 -0.0487,2.399282 -0.0688,1.82725 -0.13754,2.255244 -0.13754,2.057651 -0.32103,2.551559 -0.34397,2.913713 -0.41275,2.304643 -0.75665,3.588548 -0.55029,2.024806 -0.36688,1.35806 -0.50443,1.605052 -0.728,2.03709 -0.71366,1.79229 -0.55316,1.3169 -0.77672,1.604977 -0.7939,1.454853 -0.34107,0.629632 -0.69073,1.131704 -0.68786,1.094702 -0.7108,1.069985 -0.67641,0.913663 -0.4815,0.60907 -1.69673,1.967131 -1.7426,1.761411 -0.89423,0.806627 -0.83403,0.748951 -0.82544,0.697588 -0.82831,0.629631 -0.82543,0.59263 -0.38978,0.29178 -0.98881,0.674948 -1.62221,1.034985 -0.79391,0.454753 -0.58469,0.349984 a 52.094389,51.756768 0 0 0 1.45025,0.378293 l 1.06906,0.255118 a 52.094389,51.756768 0 0 0 2.15531,0.401235 l 1.42445,0.249071 a 52.094389,51.756768 0 0 0 2.97216,0.337134 l 1.08339,0.08013 a 52.094389,51.756768 0 0 0 2.45912,0.105071 l 0.96014,0.0189 a 52.094389,51.756768 0 0 0 3.32469,-0.09449 l 1.2095,-0.115275 a 52.094389,51.756768 0 0 0 2.42473,-0.240756 l 0.49297,-0.07446 a 52.094389,51.756768 0 0 0 2.59956,-0.446551 l 1.17797,-0.238488 a 52.094389,51.756768 0 0 0 2.22983,-0.547314 l 1.17223,-0.308409 a 52.094389,51.756768 0 0 0 3.27595,-1.058986 l 3.13839,-1.255257 a 52.094389,51.756768 0 0 0 0.0974,-0.0412 l 2.61103,-1.236699 a 52.094389,51.756768 0 0 0 0.1519,-0.07824 l 2.37599,-1.294262 a 52.094389,51.756768 0 0 0 0.22072,-0.129637 l 1.99481,-1.228422 a 52.094389,51.756768 0 0 0 0.23789,-0.154583 l 2.34733,-1.631811 a 52.094389,51.756768 0 0 0 0.18913,-0.14211 l 2.01774,-1.576177 a 52.094389,51.756768 0 0 0 0.10034,-0.08239 l 2.14386,-1.876574 a 52.094389,51.756768 0 0 0 0.0602,-0.0514 l 0.0287,-0.02646 1.95756,-1.915729 a 52.094389,51.756768 0 0 0 0.16623,-0.174614 l 2.09225,-2.312807 a 52.094389,51.756768 0 0 0 0.0773,-0.08844 l 2.33588,-2.969272 a 52.094389,51.756768 0 0 0 0.017,-0.02268 l 0.0344,-0.04913 1.60789,-2.356082 a 52.094389,51.756768 0 0 0 0.14612,-0.224504 l 1.71107,-2.886954 a 52.094389,51.756768 0 0 0 0.0717,-0.129638 l 1.62508,-3.234671 a 52.094389,51.756768 0 0 0 0.017,-0.03402 l 0.014,-0.03402 1.58209,-3.874658 a 52.094389,51.756768 0 0 0 0.0456,-0.12548 l 1.00887,-3.12771 a 52.094389,51.756768 0 0 0 0.0456,-0.154583 l 0.84837,-3.411628 a 52.094389,51.756768 0 0 0 0.017,-0.08428 l 0.78532,-4.901405 a 52.094389,51.756768 0 0 0 0.0227,-0.199937 l 0.27798,-4.160693 a 52.094389,51.756768 0 0 0 0.005,-0.234708 l -0.0317,-3.259389 a 52.094389,51.756768 0 0 0 0,-0.01512 l -0.003,-0.02268 -0.2637,-3.438387 a 52.094389,51.756768 0 0 0 -0.003,-0.04913 l -0.005,-0.04535 -0.56462,-3.763578 a 52.094389,51.756768 0 0 0 -0.003,-0.02268 l -0.009,-0.03402 -1.08339,-4.584605 a 52.094389,51.756768 0 0 0 -0.009,-0.03024 l -0.003,-0.0076 a 52.094389,51.756768 0 0 0 -0.04,-0.133418 l -0.44136,-1.444459 a 52.094389,51.756768 0 0 0 -0.0602,-0.185575 l -0.75951,-2.144088 a 52.094389,51.756768 0 0 0 -1.22383,-2.975434 l -1.76558,-3.578343 a 52.094389,51.756768 0 0 0 -0.16339,-0.275527 l -2.17251,-3.557708 a 52.094389,51.756768 0 0 0 -0.89709,-1.298456 l -1.36713,-1.849852 a 52.094389,51.756768 0 0 0 -1.59929,-1.991849 l -0.6764,-0.740787 a 52.094389,51.756768 0 0 0 -1.76839,-1.90133 L 273.13224,9.5322022 A 52.094389,51.756768 0 0 0 271.35527,7.871629 L 270.02539,6.7316479 A 52.094389,51.756768 0 0 0 268.5866,5.567062 l -1.7535,-1.292863 a 52.094389,51.756768 0 0 0 -1.41586,-0.9856252 l -1.37573,-0.8704252 a 52.094389,51.756768 0 0 0 -1.63655,-0.9753071 l -1.66808,-0.90126615 a 52.094389,51.756768 0 0 0 -1.67666,-0.84574489 l -1.46745,-0.66670867 a 52.094389,51.756768 0 0 0 -2.05501,-0.85806619 l -0.88849,-0.343559 a 52.094389,51.756768 0 0 0 -3.09826,-1.0411843 l -0.0831,-0.026457 a 52.094389,51.756768 0 0 0 -0.009,-0.00197 l -0.0318,-0.00756 a 52.094389,51.756768 0 0 0 -3.37627,-0.8725039 l -0.75091,-0.152315 a 52.094389,51.756768 0 0 0 -2.57378,-0.4752756 l -1.14644,-0.1644094 a 52.094389,51.756768 0 0 0 -2.15531,-0.240756 l -1.55916,-0.12737 a 52.094389,51.756768 0 0 0 -2.43046,-0.098646 z" /><path
     id="path102712"
     style="opacity:0.603376;fill:url(#linearGradient102840);fill-opacity:1;stroke-width:0.224037"
     d="m 624.71509,2.1483281 -0.20749,0.00189 a 27.455151,42.131006 0 0 0 -1.69289,0.1167874 l -0.18406,0.022677 a 27.455151,42.131006 0 0 0 -1.7398,0.3019842 l -0.0646,0.015118 a 27.455151,42.131006 0 0 0 -0.76516,0.2139213 l 0.20523,0.089953 0.43045,0.2184567 0.64981,0.4011969 0.60276,0.4401638 0.2502,0.1988031 0.26646,0.2297953 0.34054,0.303874 0.42274,0.397304 0.60665,0.6154582 0.6028,0.7089638 0.37152,0.4245922 0.56754,0.7244976 0.20749,0.2842205 0.30955,0.4284472 0.28119,0.4051654 0.22677,0.3193701 0.61444,0.9309354 0.23887,0.3856628 0.78671,1.293241 1.08419,1.904806 0.33676,0.646564 0.29367,0.557065 0.29745,0.584277 0.87284,1.772371 1.00592,2.150174 0.28573,0.646639 0.8024,1.795691 0.25474,0.595994 0.37153,0.845292 1.94135,4.621757 1.06265,2.732485 0.70844,1.92824 2.90037,8.176176 1.23874,4.097802 1.06469,3.757039 0.46379,1.78405 0.26608,1.01469 0.14475,0.671925 0.38158,1.587363 0.78675,0.0037 h 0.77114 l 2.95113,0.0076 h 2.12141 l 1.21727,-0.0076 a 27.455151,42.131006 0 0 0 0.034,-0.219968 l 0.0113,-0.07181 a 27.455151,42.131006 0 0 0 0.0227,-0.171213 27.455151,42.131006 0 0 0 0.10167,-0.759571 c 0.002,-0.01512 0.002,-0.0189 0.004,-0.03402 a 27.455151,42.131006 0 0 0 0.0151,-0.114898 l 0.0646,-0.539452 0.004,-0.04082 0.0975,-0.917367 a 27.455151,42.131006 0 0 0 0.0189,-0.169322 l 0.002,-0.0378 0.19956,-2.662412 a 27.455151,42.131006 0 0 0 0.004,-0.04271 l 0.002,-0.06236 0.0567,-1.316599 0.0265,-1.092623 a 27.455151,42.131006 0 0 0 0.008,-0.738142 l 0.002,-0.114898 a 27.455151,42.131006 0 0 0 0,-0.0019 27.455151,42.131006 0 0 0 0,-0.002 27.455151,42.131006 0 0 0 0,-0.002 27.455151,42.131006 0 0 0 0,-0.0019 27.455151,42.131006 0 0 0 0,-0.002 27.455151,42.131006 0 0 0 0,-0.002 27.455151,42.131006 0 0 0 0,-0.0019 27.455151,42.131006 0 0 0 0,-0.002 27.455151,42.131006 0 0 0 0,-0.002 27.455151,42.131006 0 0 0 0,-0.0019 27.455151,42.131006 0 0 0 0,-0.0019 27.455151,42.131006 0 0 0 0,-0.002 27.455151,42.131006 0 0 0 0,-0.0019 27.455151,42.131006 0 0 0 0,-0.0019 27.455151,42.131006 0 0 0 0,-0.002 27.455151,42.131006 0 0 0 0,-0.0019 27.455151,42.131006 0 0 0 0,-0.0019 27.455151,42.131006 0 0 0 0,-0.002 27.455151,42.131006 0 0 0 0,-0.002 27.455151,42.131006 0 0 0 0,-0.0019 27.455151,42.131006 0 0 0 0,-0.002 27.455151,42.131006 0 0 0 0,-0.002 27.455151,42.131006 0 0 0 0,-0.0019 27.455151,42.131006 0 0 0 0,-0.0019 27.455151,42.131006 0 0 0 0,-0.002 27.455151,42.131006 0 0 0 0,-0.0019 27.455151,42.131006 0 0 0 0,-0.0019 27.455151,42.131006 0 0 0 0,-0.002 27.455151,42.131006 0 0 0 0,-0.002 27.455151,42.131006 0 0 0 0,-0.0019 27.455151,42.131006 0 0 0 0,-0.002 27.455151,42.131006 0 0 0 0,-0.002 27.455151,42.131006 0 0 0 0,-0.0019 27.455151,42.131006 0 0 0 0,-0.002 27.455151,42.131006 0 0 0 0,-0.0019 27.455151,42.131006 0 0 0 0,-0.002 27.455151,42.131006 0 0 0 0,-0.002 27.455151,42.131006 0 0 0 0,-0.0019 27.455151,42.131006 0 0 0 0,-0.002 27.455151,42.131006 0 0 0 0,-0.0019 27.455151,42.131006 0 0 0 0,-0.0019 27.455151,42.131006 0 0 0 0,-0.002 27.455151,42.131006 0 0 0 0,-0.002 27.455151,42.131006 0 0 0 0,-0.0019 27.455151,42.131006 0 0 0 0,-0.002 27.455151,42.131006 0 0 0 0,-0.0019 27.455151,42.131006 0 0 0 0,-0.0019 27.455151,42.131006 0 0 0 0,-0.002 27.455151,42.131006 0 0 0 0,-0.002 27.455151,42.131006 0 0 0 0,-0.0019 27.455151,42.131006 0 0 0 0,-0.002 27.455151,42.131006 0 0 0 0,-0.0019 27.455151,42.131006 0 0 0 0,-0.002 27.455151,42.131006 0 0 0 0,-0.0019 27.455151,42.131006 0 0 0 0,-0.002 27.455151,42.131006 0 0 0 0,-0.002 27.455151,42.131006 0 0 0 0,-0.0019 27.455151,42.131006 0 0 0 0,-0.002 27.455151,42.131006 0 0 0 0,-0.0019 27.455151,42.131006 0 0 0 0,-0.002 27.455151,42.131006 0 0 0 0,-0.002 27.455151,42.131006 0 0 0 0,-0.0019 27.455151,42.131006 0 0 0 -0.008,-0.796573 v -0.0703 a 27.455151,42.131006 0 0 0 -0.002,-0.06425 27.455151,42.131006 0 0 0 -0.0113,-0.49663 l -0.0779,-2.064529 a 27.455151,42.131006 0 0 0 -0.0151,-0.282331 l -0.002,-0.04838 a 27.455151,42.131006 0 0 0 -0.0548,-0.821896 l -0.004,-0.03893 -0.20523,-2.259288 a 27.455151,42.131006 0 0 0 -0.09,-0.788788 27.455151,42.131006 0 0 0 -0.0941,-0.732321 l -0.0302,-0.235464 a 27.455151,42.131006 0 0 0 -0.008,-0.04649 27.455151,42.131006 0 0 0 -0.0646,-0.432415 L 651.358,33.133822 a 27.455151,42.131006 0 0 0 -0.0726,-0.41091 l -0.008,-0.03024 -0.29934,-1.495748 a 27.455151,42.131006 0 0 0 -0.0745,-0.350362 l -0.008,-0.0378 -0.29744,-1.273738 a 27.455151,42.131006 0 0 0 -0.65953,-2.475515 27.455151,42.131006 0 0 0 -0.77299,-2.428687 l -0.12699,-0.362456 a 27.455151,42.131006 0 0 0 -0.85916,-2.280681 27.455151,42.131006 0 0 0 -0.82783,-1.8912 l -0.5147,-1.084838 a 27.455151,42.131006 0 0 0 -0.63213,-1.250343 l -0.45006,-0.831647 a 27.455151,42.131006 0 0 0 -0.95513,-1.645796 l -0.076,-0.128503 a 27.455151,42.131006 0 0 0 -1.18594,-1.77823 l -0.23319,-0.329197 a 27.455151,42.131006 0 0 0 -1.32885,-1.741229 27.455151,42.131006 0 0 0 -1.3014,-1.4821412 L 640.2364,9.3633329 a 27.455151,42.131006 0 0 0 -1.16832,-1.1490898 l -0.24681,-0.231685 A 27.455151,42.131006 0 0 0 637.59032,6.948366 L 636.92293,6.4302683 A 27.455151,42.131006 0 0 0 635.74481,5.5928006 L 635.44547,5.3939974 A 27.455151,42.131006 0 0 0 633.90917,4.49224 l -0.31861,-0.1636536 a 27.455151,42.131006 0 0 0 -1.49908,-0.7011402 l -0.12132,-0.052535 a 27.455151,42.131006 0 0 0 -1.61647,-0.5784567 l -0.40115,-0.1167874 a 27.455151,42.131006 0 0 0 -1.57939,-0.3915213 l -0.12284,-0.022677 A 27.455151,42.131006 0 0 0 626.55164,2.223957 l -0.11187,-0.015118 a 27.455151,42.131006 0 0 0 -1.72411,-0.062362 z" /><path
     style="opacity:0.36129;fill:#000000;fill-opacity:1;stroke-width:0.354"
     d="M 361.59601,93.435334 V 93.204405"
     id="path103657" /><path
     style="opacity:0.36129;fill:#f1eee0;fill-opacity:1;stroke:#92bcd9;stroke-width:0.132292;stroke-dasharray:none;stroke-opacity:1;filter:url(#filter131690)"
     d="m 125.29924,158.85793 -6.46485,-5.45436"
     id="path129320"
     transform="matrix(3.7795276,0,0,3.7795276,6.0149661,-485.8498)" /><path
     style="opacity:0.36129;fill:#f1eee0;fill-opacity:1;stroke:#92bcd9;stroke-width:0.132292;stroke-dasharray:none;stroke-opacity:1;filter:url(#filter131690)"
     d="m 125.29924,158.85793 -6.46485,-5.45436"
     id="path132956"
     transform="matrix(3.7795276,0,0,3.7795276,6.0149661,-485.8498)" /><path
     style="opacity:0.36129;fill:#f1eee0;fill-opacity:1;stroke:#92bcd9;stroke-width:0.132292;stroke-dasharray:none;stroke-opacity:1;filter:url(#filter131690)"
     d="m 100.54567,158.66245 -6.464854,-5.45436"
     id="path137722"
     transform="matrix(0.34338203,-3.3485768,4.0735121,0.28227266,-319.24297,385.10322)" /><path
     id="rect138450"
     style="opacity:0.36129;fill:url(#linearGradient138458);stroke:#92bcd9;stroke-width:0"
     d="m 595.99789,22.149985 -39.24421,-0.552313 0.0184,-20.85032283 39.2442,0.55231363 z" /><path
     id="rect147943"
     style="opacity:0.711429;fill:#ffffff;stroke:#000204;stroke-width:0;filter:url(#filter148426)"
     d="m 96.956419,165.10123 h 19.341321 c 0.0652,0 0.11771,0.0525 0.11771,0.11771 v 7.96423 c 0,0.0652 -0.0525,0.11771 -0.11771,0.11771 H 96.956419 c -0.06521,0 -0.117712,-0.0525 -0.117712,-0.11771 v -7.96423 c 0,-0.0652 0.0525,-0.11771 0.117712,-0.11771 z"
     transform="matrix(3.7795276,0,0,3.7795276,6.0149661,-485.8498)" /><g
     aria-label="TEXT"
     transform="translate(10.406058,-492.70806)"
     id="text148797"
     style="font-weight:bold;font-size:13.3333px;-inkscape-font-specification:'sans-serif, Bold';white-space:pre;shape-inside:url(#rect148799);display:inline;opacity:0.711429;fill:url(#linearGradient148919);stroke:#000204;stroke-width:0.1;filter:url(#filter149330)"><path
       d="m 380.57812,641.57562 h -5.44921 v 14.07421 h -4.5 v -14.07421 h -5.44922 v -3.375 h 15.39843 z"
       style="font-size:24px;fill:url(#linearGradient1142)"
       id="path889" /><path
       d="m 395.90625,655.64983 h -12.62109 v -17.44921 h 12.62109 v 3.375 h -8.14453 v 3.01171 h 7.55859 v 3.375 h -7.55859 v 4.3125 h 8.14453 z"
       style="font-size:24px;fill:url(#linearGradient1144)"
       id="path891" /><path
       d="m 415.5,655.64983 h -5.20313 l -3.76171,-5.74218 -3.83204,5.74218 h -4.96875 l 6.1875,-8.78906 -6.05859,-8.66015 h 5.19141 l 3.63281,5.4375 3.73828,-5.4375 h 4.98047 l -6.09375,8.48437 z"
       style="font-size:24px;fill:url(#linearGradient1146)"
       id="path893" /><path
       d="m 431.66016,641.57562 h -5.44922 v 14.07421 h -4.5 v -14.07421 h -5.44922 v -3.375 h 15.39844 z"
       style="font-size:24px;fill:url(#linearGradient1148)"
       id="path895" /></g></g></svg>
